HIERARCHY
ROOT Hips
{
	OFFSET 0.000000 0.000000 0.000000
	CHANNELS 6 Xposition Yposition Zposition Zrotation Yrotation Xrotation 
	JOINT LHipJoint
	{
		OFFSET 0.000000 0.000000 0.000000
		CHANNELS 3 Zrotation Yrotation Xrotation
		JOINT LeftUpLeg
		{
			OFFSET 1.363060 -1.794630 0.839290
			CHANNELS 3 Zrotation Yrotation Xrotation
			JOINT LeftLeg
			{
				OFFSET 2.448110 -6.726130 0.000000
				CHANNELS 3 Zrotation Yrotation Xrotation
				JOINT LeftFoot
				{
					OFFSET 2.562200 -7.039590 0.000000
					CHANNELS 3 Zrotation Yrotation Xrotation
					JOINT LeftToeBase
					{
						OFFSET 0.157640 -0.433110 2.322550
						CHANNELS 3 Zrotation Yrotation Xrotation
						End Site
						{
							OFFSET 0.000000 0.000000 0.000000
						}
					}
				}
			}
		}
	}
	JOINT RHipJoint
	{
		OFFSET 0.000000 0.000000 0.000000
		CHANNELS 3 Zrotation Yrotation Xrotation
		JOINT RightUpLeg
		{
			OFFSET -1.305520 -1.794630 0.839290
			CHANNELS 3 Zrotation Yrotation Xrotation
			JOINT RightLeg
			{
				OFFSET -2.542530 -6.985550 0.000000
				CHANNELS 3 Zrotation Yrotation Xrotation
				JOINT RightFoot
				{
					OFFSET -2.568260 -7.056230 0.000000
					CHANNELS 3 Zrotation Yrotation Xrotation
					JOINT RightToeBase
					{
						OFFSET -0.164730 -0.452590 2.363150
						CHANNELS 3 Zrotation Yrotation Xrotation
						End Site
						{
							OFFSET 0.000000 0.000000 0.000000
						}
					}
				}
			}
		}
	}
	JOINT LowerBack
	{
		OFFSET 0.000000 0.000000 0.000000
		CHANNELS 3 Zrotation Yrotation Xrotation
		JOINT Spine
		{
			OFFSET 0.028270 2.035590 -0.193380
			CHANNELS 3 Zrotation Yrotation Xrotation
			JOINT Spine1
			{
				OFFSET 0.056720 2.048850 -0.042750
				CHANNELS 3 Zrotation Yrotation Xrotation
				JOINT Neck
				{
					OFFSET 0.000000 0.000000 0.000000
					CHANNELS 3 Zrotation Yrotation Xrotation
					JOINT Neck1
					{
						OFFSET -0.054170 1.746240 0.172020
						CHANNELS 3 Zrotation Yrotation Xrotation
						JOINT Head
						{
							OFFSET 0.104070 1.761360 -0.123970
							CHANNELS 3 Zrotation Yrotation Xrotation
							End Site
							{
								OFFSET 0.000000 0.000000 0.000000
							}
						}
					}
				}
				JOINT LeftShoulder
				{
					OFFSET 0.000000 0.000000 0.000000
					CHANNELS 3 Zrotation Yrotation Xrotation
					JOINT LeftArm
					{
						OFFSET 3.362410 1.200890 -0.311210
						CHANNELS 3 Zrotation Yrotation Xrotation
						JOINT LeftForeArm
						{
							OFFSET 4.983000 -0.000000 -0.000000
							CHANNELS 3 Zrotation Yrotation Xrotation
							JOINT LeftHand
							{
								OFFSET 3.483560 -0.000000 -0.000000
								CHANNELS 3 Zrotation Yrotation Xrotation
								JOINT LeftFingerBase
								{
									OFFSET 0.000000 0.000000 0.000000
									CHANNELS 3 Zrotation Yrotation Xrotation
									JOINT LeftHandIndex1
									{
										OFFSET 0.715260 -0.000000 -0.000000
										CHANNELS 3 Zrotation Yrotation Xrotation
										End Site
										{
											OFFSET 0.000000 0.000000 0.000000
										}
									}
								}
								JOINT LThumb
								{
									OFFSET 0.000000 0.000000 0.000000
									CHANNELS 3 Zrotation Yrotation Xrotation
									End Site
									{
										OFFSET 0.000000 0.000000 0.000000
									}
								}
							}
						}
					}
				}
				JOINT RightShoulder
				{
					OFFSET 0.000000 0.000000 0.000000
					CHANNELS 3 Zrotation Yrotation Xrotation
					JOINT RightArm
					{
						OFFSET -3.136600 1.374050 -0.404650
						CHANNELS 3 Zrotation Yrotation Xrotation
						JOINT RightForeArm
						{
							OFFSET -5.241900 -0.000000 -0.000000
							CHANNELS 3 Zrotation Yrotation Xrotation
							JOINT RightHand
							{
								OFFSET -3.444170 -0.000000 -0.000000
								CHANNELS 3 Zrotation Yrotation Xrotation
								JOINT RightFingerBase
								{
									OFFSET 0.000000 0.000000 0.000000
									CHANNELS 3 Zrotation Yrotation Xrotation
									JOINT RightHandIndex1
									{
										OFFSET -0.622530 -0.000000 -0.000000
										CHANNELS 3 Zrotation Yrotation Xrotation
										End Site
										{
											OFFSET 0.000000 0.000000 0.000000
										}
									}
								}
								JOINT RThumb
								{
									OFFSET 0.000000 0.000000 0.000000
									CHANNELS 3 Zrotation Yrotation Xrotation
									End Site
									{
										OFFSET 0.000000 0.000000 0.000000
									}
								}
							}
						}
					}
				}
			}
		}
	}
}
MOTION
Frames: 6
Frame Time: 0.008333
0.191530 17.305804 1.784373 4.900348 -43.804669 12.143651 -8.252682 1.023485 7.131207 -9.315814 -28.667154 -13.258251 -2.205483 -1.047062 2.935772 0.717217 4.550056 -2.468483 0.631199 0.000000 -26.051800 9.809983 0.257928 2.921571 10.394605 15.704964 -32.343014 -2.167592 -2.855542 58.955972 -5.462637 -31.002388 9.341123 -10.652700 0.000000 -61.026700 -3.235250 -2.957872 -8.215087 -1.318308 -2.922170 -4.068350 -7.511654 -2.929661 0.872865 12.393886 -14.277694 -6.010360 -1.799656 -0.166918 0.519885 0.000000 0.000000 0.000000 -7.512352 4.241432 1.856020 -63.746096 -8.099966 -0.887994 -3.546699 -19.938132 -0.003539 9.765991 -3.178526 -0.276529 -0.056123 0.044746 -0.000000 0.000000 0.000000 0.000000 0.000000 0.000000 0.000000 3.708891 -11.110465 -3.933119 77.865774 6.289821 7.978098 -179.380659 67.301560 179.898975 -8.100474 13.517320 -1.025432 0.037062 -0.818576 0.000000 0.000000 0.000000 0.000000 0.000000 0.000000 0.000000 
0.201951 17.306132 1.788208 4.834041 -43.206162 12.219551 -8.272566 0.954121 7.110027 -9.155864 -29.128738 -13.267775 -2.191463 -1.019954 3.120265 0.711390 4.508438 -2.479596 0.622800 0.000000 -26.173200 9.897975 0.420490 2.857599 10.174311 15.839416 -34.175631 -2.315264 -2.986140 62.201472 -5.123446 -29.604784 13.298367 -11.693200 0.000000 -63.052900 -3.228307 -3.006291 -8.044135 -1.310843 -2.965088 -4.042363 -7.511966 -2.972178 0.832898 12.361092 -14.257048 -6.005010 -1.780756 -0.165277 0.519262 0.000000 0.000000 0.000000 -7.656483 4.037871 1.895776 -63.760398 -8.360900 -0.832443 -3.549639 -19.810215 -0.003866 9.700030 -3.197884 -0.276529 -0.056073 0.047088 -0.000000 0.000000 0.000000 0.000000 0.000000 0.000000 0.000000 3.563959 -11.116844 -3.899761 78.001309 6.058902 7.895873 -179.366833 67.306923 179.898648 -8.074827 13.507778 -1.021181 0.034076 -0.817662 0.000000 0.000000 0.000000 0.000000 0.000000 0.000000 0.000000 
0.212538 17.306314 1.790874 4.760271 -42.638976 12.286469 -8.296777 0.883353 7.079019 -8.998502 -29.547312 -13.285951 -2.178130 -0.989937 3.353322 0.704428 4.451369 -2.513133 0.610100 0.000000 -26.322599 9.978045 0.592417 2.796526 9.978280 15.981096 -36.042997 -2.443929 -3.114434 65.498990 -4.804150 -27.947179 17.145937 -12.321500 -0.000001 -64.215700 -3.216083 -3.052185 -7.864526 -1.302585 -3.006106 -4.014107 -7.512638 -3.012499 0.793891 12.334142 -14.242500 -5.998192 -1.762210 -0.163682 0.518897 0.000000 0.000000 0.000000 -7.784282 3.833354 1.933891 -63.775321 -8.612273 -0.762532 -3.552338 -19.706180 -0.004166 9.628376 -3.218753 -0.276428 -0.056217 0.049419 -0.000000 0.000000 0.000000 0.000000 0.000000 0.000000 0.000000 3.428409 -11.127601 -3.865140 78.131175 5.842927 7.837727 -179.355580 67.313928 179.898518 -8.029798 13.495642 -1.014130 0.030802 -0.816733 0.000000 0.000000 0.000000 0.000000 0.000000 0.000000 0.000000 
0.222912 17.306484 1.792635 4.676351 -42.100290 12.356356 -8.324951 0.811751 7.041698 -8.835174 -29.924126 -13.333039 -2.164918 -0.957063 3.641940 0.695760 4.374945 -2.567185 0.593300 0.000001 -26.523200 10.049761 0.772885 2.744871 9.809353 16.148836 -37.956319 -2.556657 -3.245132 68.848998 -4.515589 -26.094527 20.858586 -12.568500 0.000000 -64.994400 -3.199433 -3.095635 -7.687774 -1.293837 -3.045509 -3.985163 -7.515279 -3.050950 0.758798 12.317456 -14.223417 -5.992275 -1.743870 -0.162091 0.518146 0.000000 0.000000 0.000000 -7.899691 3.659305 1.969982 -63.784366 -8.890608 -0.651436 -3.556375 -19.602861 -0.004459 9.561053 -3.238063 -0.276325 -0.056631 0.051812 -0.000000 0.000000 0.000000 0.000000 0.000000 0.000000 0.000000 3.305188 -11.130694 -3.832553 78.255361 5.620797 7.788183 -179.345191 67.310644 179.898547 -7.966867 13.481029 -1.004680 0.027154 -0.815774 0.000000 0.000000 0.000000 0.000000 0.000000 0.000000 0.000000 
0.233042 17.306751 1.793538 4.580299 -41.590262 12.419013 -8.357925 0.740828 6.996627 -8.671716 -30.253607 -13.389197 -2.152060 -0.920978 3.979330 0.685003 4.276111 -2.642935 0.571999 0.000000 -26.740900 10.115562 0.955934 2.692349 9.689528 16.312593 -39.897052 -2.661762 -3.388422 72.267242 -4.257114 -24.062726 24.273497 -12.408800 0.000000 -65.201300 -3.176960 -3.135964 -7.504402 -1.284264 -3.082484 -3.954071 -7.518765 -3.086608 0.726720 12.309570 -14.212942 -5.985948 -1.725681 -0.160514 0.517351 0.000000 0.000000 0.000000 -8.002399 3.494691 2.003103 -63.788488 -9.170020 -0.521462 -3.560367 -19.517961 -0.004736 9.499047 -3.253296 -0.276022 -0.057228 0.054181 0.000000 0.000000 0.000000 0.000000 0.000000 0.000000 0.000000 3.194196 -11.141015 -3.800187 78.375307 5.405121 7.756080 -179.337109 67.309312 179.898724 -7.892150 13.466162 -0.993729 0.023410 -0.814767 0.000000 0.000000 0.000000 0.000000 0.000000 0.000000 0.000000 
0.242853 17.307265 1.793857 4.468391 -41.107856 12.478988 -8.396285 0.671080 6.946260 -8.503485 -30.539997 -13.456541 -2.138575 -0.881956 4.361559 0.672935 4.160425 -2.739530 0.547000 0.000000 -26.969899 10.176668 1.138614 2.638484 9.627274 16.471634 -41.865553 -2.770601 -3.550226 75.757101 -4.027829 -21.907231 27.341589 -11.897900 0.000000 -65.107400 -3.146651 -3.172470 -7.318619 -1.273543 -3.116574 -3.921938 -7.523187 -3.119098 0.696775 12.310445 -14.212041 -5.978139 -1.707893 -0.158996 0.516876 0.000000 0.000000 0.000000 -8.095038 3.332079 2.032976 -63.786363 -9.439176 -0.382018 -3.563624 -19.459593 -0.005009 9.445934 -3.259698 -0.275217 -0.057933 0.056482 0.000000 0.000000 0.000000 0.000000 0.000000 0.000000 0.000000 3.095581 -11.159570 -3.767674 78.489789 5.191021 7.738174 -179.331322 67.310288 179.899014 -7.810804 13.452050 -0.982075 0.019710 -0.813707 0.000000 0.000000 0.000000 0.000000 0.000000 0.000000 0.000000 
